<?xml version="1.0" standalone="no"?>
<!DOCTYPE svg PUBLIC "-//W3C//DTD SVG 20010904//EN"
 "http://www.w3.org/TR/2001/REC-SVG-20010904/DTD/svg10.dtd">
<svg version="1.0" xmlns="http://www.w3.org/2000/svg"
 width="500.000000pt" height="500.000000pt" viewBox="0 0 500.000000 500.000000"
 preserveAspectRatio="xMidYMid meet">
<metadata>
Created by potrace 1.14, written by Peter Selinger 2001-2017
</metadata>
<g transform="translate(0.000000,500.000000) scale(0.100000,-0.100000)"
fill="#000000" stroke="none">
<path d="M1980 4640 c-197 -48 -299 -140 -381 -342 -16 -39 -31 -82 -34 -97
-3 -14 -7 -37 -11 -51 -3 -14 -7 -73 -10 -131 -5 -128 4 -161 85 -332 74 -154
103 -219 107 -234 1 -6 32 -72 69 -145 l67 -133 0 -95 c0 -102 -6 -154 -24
-210 -25 -79 -89 -167 -146 -202 -21 -12 -39 -25 -42 -29 -6 -9 -292 -146
-385 -184 -149 -62 -246 -136 -302 -232 -38 -66 -64 -207 -64 -353 0 -69 3
-136 6 -150 3 -14 8 -54 10 -90 3 -36 7 -81 10 -100 3 -19 7 -53 10 -75 12
-94 80 -471 95 -526 11 -40 24 -49 73 -49 18 0 37 -4 43 -8 11 -7 45 -105 41
-120 -1 -4 -16 -31 -34 -61 -18 -30 -33 -62 -34 -70 0 -9 -3 -25 -5 -36 -10
-43 -10 -130 0 -160 25 -73 91 -146 160 -180 81 -38 200 -50 299 -30 49 10 66
20 110 63 29 29 61 69 72 89 17 32 103 165 128 198 68 91 101 133 131 168 74
89 309 372 319 387 24 32 36 31 53 -6 17 -36 86 -94 121 -102 83 -19 88 -17
161 51 37 35 86 72 108 82 21 10 61 34 87 52 44 31 62 35 62 15 0 -25 57 -146
75 -162 3 -3 19 -22 35 -43 15 -21 41 -45 56 -53 45 -23 138 -18 203 11 37 17
75 25 110 25 36 0 72 8 107 25 30 13 74 27 98 30 53 6 88 27 103 61 8 18 19
24 42 24 17 0 47 10 66 21 34 21 67 27 156 28 52 1 81 28 126 117 17 36 36 68
40 70 5 3 6 9 4 12 -2 4 8 22 22 40 22 26 36 33 77 37 28 2 68 7 90 10 22 2
60 7 85 10 146 17 168 32 198 135 32 109 45 155 48 165 7 30 38 142 88 313 31
106 56 200 56 210 0 10 5 23 12 30 7 7 9 12 5 12 -3 0 -2 12 4 27 9 22 58 205
84 307 2 11 21 70 40 131 27 84 35 126 33 165 -3 50 -5 54 -33 62 -37 11 -336
1 -490 -16 -27 -3 -81 -8 -120 -11 -38 -3 -88 -8 -110 -11 -95 -11 -125 -14
-205 -20 -96 -6 -151 -11 -195 -18 -25 -3 -92 -10 -200 -21 -11 -1 -69 -5
-130 -10 -60 -5 -118 -10 -127 -11 -10 -1 -31 -2 -46 -3 -16 0 -38 -10 -49
-20 -18 -18 -44 -101 -57 -186 -9 -59 -76 -350 -87 -374 l-10 -25 -27 41 c-79
118 -134 150 -417 238 -121 38 -225 83 -248 108 -32 35 -52 95 -62 189 -6 57
-6 57 22 64 107 23 189 71 263 151 105 117 161 257 227 572 33 160 37 191 37
336 0 140 -2 167 -21 218 -45 120 -160 259 -270 323 -60 36 -195 82 -286 98
-115 20 -286 18 -377 -4z"/>
</g>
</svg>
